<svg xmlns="http://www.w3.org/2000/svg" xmlns:xlink="http://www.w3.org/1999/xlink" width="50" zoomAndPan="magnify" viewBox="0 0 37.5 37.499999" height="50" preserveAspectRatio="xMidYMid meet" version="1.0"><defs><g/><clipPath id="b3a69e3ac3"><path d="M 4.765625 0 L 32.148438 0 L 32.148438 37 L 4.765625 37 Z M 4.765625 0 " clip-rule="nonzero"/></clipPath><clipPath id="da0e83e9e8"><path d="M 22 0 L 32.148438 0 L 32.148438 10 L 22 10 Z M 22 0 " clip-rule="nonzero"/></clipPath></defs><g clip-path="url(#b3a69e3ac3)"><path fill="#006fe8" d="M 32.148438 9.824219 L 32.148438 35.089844 C 32.148438 35.34375 32.101562 35.585938 32.003906 35.816406 C 31.910156 36.050781 31.773438 36.253906 31.59375 36.433594 C 31.417969 36.613281 31.210938 36.75 30.980469 36.84375 C 30.75 36.941406 30.507812 36.988281 30.257812 36.988281 L 6.65625 36.988281 C 6.40625 36.988281 6.164062 36.941406 5.933594 36.84375 C 5.703125 36.75 5.496094 36.613281 5.320312 36.433594 C 5.140625 36.253906 5.003906 36.050781 4.910156 35.816406 C 4.8125 35.585938 4.765625 35.34375 4.765625 35.089844 L 4.765625 1.917969 C 4.765625 1.664062 4.8125 1.421875 4.910156 1.191406 C 5.003906 0.957031 5.140625 0.75 5.320312 0.574219 C 5.496094 0.394531 5.703125 0.257812 5.933594 0.160156 C 6.164062 0.0664062 6.40625 0.015625 6.65625 0.015625 L 22.375 0.015625 Z M 32.148438 9.824219 " fill-opacity="1" fill-rule="nonzero"/></g><g clip-path="url(#da0e83e9e8)"><path fill="#5aa9ff" d="M 32.148438 9.824219 L 23.167969 9.824219 C 22.949219 9.824219 22.761719 9.746094 22.609375 9.589844 C 22.453125 9.433594 22.375 9.246094 22.375 9.027344 L 22.375 0.015625 Z M 32.148438 9.824219 " fill-opacity="1" fill-rule="nonzero"/></g><path fill="#ffffff" d="M 11.785156 20.160156 L 9.652344 20.160156 L 9.652344 25.875 L 11.785156 25.875 C 13.605469 25.875 14.773438 24.710938 14.773438 23.019531 C 14.773438 21.316406 13.605469 20.160156 11.785156 20.160156 Z M 11.695312 24.671875 L 11.039062 24.671875 L 11.039062 21.347656 L 11.695312 21.347656 C 12.742188 21.347656 13.359375 21.96875 13.359375 23.019531 C 13.359375 24.070312 12.742188 24.671875 11.695312 24.671875 Z M 11.695312 24.671875 " fill-opacity="1" fill-rule="nonzero"/><path fill="#ffffff" d="M 18.246094 20.078125 C 16.632812 20.078125 15.316406 21.285156 15.316406 23.003906 C 15.316406 24.722656 16.632812 25.933594 18.246094 25.933594 C 19.859375 25.933594 21.160156 24.71875 21.160156 23.003906 C 21.160156 21.285156 19.867188 20.078125 18.246094 20.078125 Z M 18.246094 24.664062 C 17.320312 24.664062 16.738281 24.003906 16.738281 23 C 16.738281 21.984375 17.320312 21.339844 18.246094 21.339844 C 19.15625 21.339844 19.746094 21.984375 19.746094 23 C 19.746094 24.003906 19.15625 24.664062 18.246094 24.664062 Z M 18.246094 24.664062 " fill-opacity="1" fill-rule="nonzero"/><path fill="#ffffff" d="M 24.542969 24.65625 C 23.691406 24.65625 23.105469 24.019531 23.105469 23.011719 C 23.105469 22 23.691406 21.367188 24.542969 21.367188 C 25.070312 21.367188 25.5 21.609375 25.738281 22.097656 L 27.261719 22.097656 C 26.9375 20.859375 25.914062 20.09375 24.558594 20.09375 C 22.878906 20.09375 21.695312 21.300781 21.695312 23.011719 C 21.695312 24.722656 22.878906 25.917969 24.558594 25.917969 C 25.914062 25.917969 26.9375 25.160156 27.261719 23.921875 L 25.738281 23.921875 C 25.5 24.410156 25.070312 24.65625 24.542969 24.65625 Z M 24.542969 24.65625 " fill-opacity="1" fill-rule="nonzero"/><g fill="#006fe8" fill-opacity="1"><g transform="translate(14.918277, 13.988486)"><g><path d="M 0.546875 0.015625 C 0.460938 0.015625 0.390625 -0.00390625 0.328125 -0.046875 C 0.265625 -0.0859375 0.210938 -0.144531 0.171875 -0.21875 C 0.128906 -0.300781 0.109375 -0.40625 0.109375 -0.53125 C 0.109375 -0.65625 0.128906 -0.753906 0.171875 -0.828125 C 0.210938 -0.910156 0.265625 -0.972656 0.328125 -1.015625 C 0.398438 -1.054688 0.476562 -1.078125 0.5625 -1.078125 C 0.632812 -1.078125 0.695312 -1.0625 0.75 -1.03125 C 0.8125 -1.007812 0.863281 -0.96875 0.90625 -0.90625 L 0.921875 -0.90625 L 0.921875 -1.484375 L 1.078125 -1.484375 L 1.078125 0 L 0.921875 0 L 0.921875 -0.15625 L 0.90625 -0.15625 C 0.875 -0.101562 0.828125 -0.0625 0.765625 -0.03125 C 0.703125 0 0.628906 0.015625 0.546875 0.015625 Z M 0.59375 -0.125 C 0.695312 -0.125 0.773438 -0.15625 0.828125 -0.21875 C 0.890625 -0.289062 0.921875 -0.394531 0.921875 -0.53125 C 0.921875 -0.664062 0.890625 -0.765625 0.828125 -0.828125 C 0.773438 -0.898438 0.695312 -0.9375 0.59375 -0.9375 C 0.5 -0.9375 0.421875 -0.898438 0.359375 -0.828125 C 0.304688 -0.765625 0.28125 -0.664062 0.28125 -0.53125 C 0.28125 -0.257812 0.382812 -0.125 0.59375 -0.125 Z M 0.59375 -0.125 "/></g></g></g><g fill="#006fe8" fill-opacity="1"><g transform="translate(16.182529, 13.988486)"><g><path d="M 0.609375 0.015625 C 0.503906 0.015625 0.414062 -0.00390625 0.34375 -0.046875 C 0.269531 -0.0859375 0.210938 -0.148438 0.171875 -0.234375 C 0.128906 -0.316406 0.109375 -0.414062 0.109375 -0.53125 C 0.109375 -0.644531 0.128906 -0.742188 0.171875 -0.828125 C 0.210938 -0.910156 0.269531 -0.972656 0.34375 -1.015625 C 0.414062 -1.054688 0.503906 -1.078125 0.609375 -1.078125 C 0.710938 -1.078125 0.800781 -1.054688 0.875 -1.015625 C 0.945312 -0.972656 1 -0.910156 1.03125 -0.828125 C 1.070312 -0.742188 1.09375 -0.644531 1.09375 -0.53125 C 1.09375 -0.414062 1.070312 -0.316406 1.03125 -0.234375 C 1 -0.148438 0.945312 -0.0859375 0.875 -0.046875 C 0.800781 -0.00390625 0.710938 0.015625 0.609375 0.015625 Z M 0.609375 -0.125 C 0.710938 -0.125 0.789062 -0.15625 0.84375 -0.21875 C 0.90625 -0.28125 0.9375 -0.382812 0.9375 -0.53125 C 0.9375 -0.664062 0.90625 -0.765625 0.84375 -0.828125 C 0.789062 -0.898438 0.710938 -0.9375 0.609375 -0.9375 C 0.503906 -0.9375 0.421875 -0.898438 0.359375 -0.828125 C 0.304688 -0.765625 0.28125 -0.664062 0.28125 -0.53125 C 0.28125 -0.382812 0.304688 -0.28125 0.359375 -0.21875 C 0.421875 -0.15625 0.503906 -0.125 0.609375 -0.125 Z M 0.609375 -0.125 "/></g></g></g><g fill="#006fe8" fill-opacity="1"><g transform="translate(17.397823, 13.988486)"><g><path d="M 0.609375 0.015625 C 0.515625 0.015625 0.429688 -0.00390625 0.359375 -0.046875 C 0.285156 -0.0859375 0.222656 -0.148438 0.171875 -0.234375 C 0.128906 -0.316406 0.109375 -0.414062 0.109375 -0.53125 C 0.109375 -0.644531 0.128906 -0.742188 0.171875 -0.828125 C 0.222656 -0.910156 0.285156 -0.972656 0.359375 -1.015625 C 0.429688 -1.054688 0.515625 -1.078125 0.609375 -1.078125 C 0.722656 -1.078125 0.8125 -1.054688 0.875 -1.015625 C 0.9375 -0.972656 0.984375 -0.914062 1.015625 -0.84375 L 0.90625 -0.765625 L 0.890625 -0.765625 C 0.859375 -0.828125 0.820312 -0.867188 0.78125 -0.890625 C 0.738281 -0.921875 0.679688 -0.9375 0.609375 -0.9375 C 0.546875 -0.9375 0.488281 -0.921875 0.4375 -0.890625 C 0.382812 -0.859375 0.34375 -0.8125 0.3125 -0.75 C 0.289062 -0.6875 0.28125 -0.613281 0.28125 -0.53125 C 0.28125 -0.4375 0.289062 -0.359375 0.3125 -0.296875 C 0.34375 -0.242188 0.382812 -0.203125 0.4375 -0.171875 C 0.488281 -0.140625 0.546875 -0.125 0.609375 -0.125 C 0.679688 -0.125 0.738281 -0.140625 0.78125 -0.171875 C 0.832031 -0.203125 0.875 -0.253906 0.90625 -0.328125 L 0.921875 -0.328125 L 1.03125 -0.265625 C 1 -0.179688 0.945312 -0.113281 0.875 -0.0625 C 0.8125 -0.0078125 0.722656 0.015625 0.609375 0.015625 Z M 0.609375 0.015625 "/></g></g></g></svg>