<svg xmlns="http://www.w3.org/2000/svg" xmlns:xlink="http://www.w3.org/1999/xlink" width="50" zoomAndPan="magnify" viewBox="0 0 37.5 37.499999" height="50" preserveAspectRatio="xMidYMid meet" version="1.0"><defs><g/><clipPath id="3fdb7abd59"><path d="M 5.070312 0 L 31.714844 0 L 31.714844 37.007812 L 5.070312 37.007812 Z M 5.070312 0 " clip-rule="nonzero"/></clipPath><clipPath id="761b364917"><path d="M 22 0 L 31.714844 0 L 31.714844 10 L 22 10 Z M 22 0 " clip-rule="nonzero"/></clipPath><clipPath id="1b6789cf90"><path d="M 3 0.0273438 L 6 0.0273438 L 6 3 L 3 3 Z M 3 0.0273438 " clip-rule="nonzero"/></clipPath><clipPath id="ed0a3f517d"><rect x="0" width="7" y="0" height="4"/></clipPath></defs><path fill="#221f1f" d="M 9.707031 0.882812 L 9.707031 10.210938 L 18.886719 10.210938 " fill-opacity="0.35" fill-rule="nonzero"/><g clip-path="url(#3fdb7abd59)"><path fill="#107c42" d="M 22.488281 0 L 7.574219 0 C 6.226562 0 5.121094 1.121094 5.121094 2.484375 L 5.121094 34.523438 C 5.121094 35.886719 6.226562 37.007812 7.574219 37.007812 L 29.210938 37.007812 C 30.558594 37.007812 31.664062 35.886719 31.664062 34.523438 L 31.664062 9.332031 Z M 22.488281 0 " fill-opacity="1" fill-rule="nonzero"/></g><g clip-path="url(#761b364917)"><path fill="#221f1f" d="M 22.488281 0 L 22.488281 9.332031 L 31.664062 9.332031 " fill-opacity="0.35" fill-rule="nonzero"/></g><path fill="#ffffff" d="M 17.859375 12.855469 L 9.945312 12.855469 C 9.390625 12.855469 8.957031 12.414062 8.957031 11.855469 L 8.957031 5.085938 C 8.957031 4.527344 9.390625 4.085938 9.945312 4.085938 L 17.859375 4.085938 C 18.410156 4.085938 18.847656 4.527344 18.847656 5.085938 L 18.847656 11.816406 C 18.847656 12.414062 18.410156 12.855469 17.859375 12.855469 Z M 17.859375 12.855469 " fill-opacity="1" fill-rule="nonzero"/><path fill="#107c42" d="M 15.128906 11.253906 C 15.128906 11.253906 14.101562 9.410156 13.902344 9.089844 L 13.863281 9.089844 C 13.703125 9.410156 13.546875 9.691406 13.269531 10.132812 L 12.636719 11.253906 L 11.25 11.253906 L 13.152344 8.492188 L 11.410156 5.6875 L 12.832031 5.6875 C 12.832031 5.6875 13.785156 7.488281 13.941406 7.808594 L 13.980469 7.808594 C 14.140625 7.449219 15.167969 5.6875 15.167969 5.6875 L 16.472656 5.6875 L 14.691406 8.449219 L 16.511719 11.253906 Z M 15.128906 11.253906 " fill-opacity="1" fill-rule="nonzero"/><path fill="#ffffff" d="M 9.511719 18.542969 L 17.582031 18.542969 L 17.582031 20.828125 L 9.511719 20.828125 Z M 9.511719 18.542969 " fill-opacity="1" fill-rule="nonzero"/><path fill="#ffffff" d="M 9.511719 23.347656 L 17.582031 23.347656 L 17.582031 25.632812 L 9.511719 25.632812 Z M 9.511719 23.347656 " fill-opacity="1" fill-rule="nonzero"/><path fill="#ffffff" d="M 9.511719 28.15625 L 17.582031 28.15625 L 17.582031 30.4375 L 9.511719 30.4375 Z M 9.511719 28.15625 " fill-opacity="1" fill-rule="nonzero"/><path fill="#ffffff" d="M 19.164062 18.542969 L 27.234375 18.542969 L 27.234375 20.828125 L 19.164062 20.828125 Z M 19.164062 18.542969 " fill-opacity="1" fill-rule="nonzero"/><path fill="#ffffff" d="M 19.164062 23.347656 L 27.234375 23.347656 L 27.234375 25.632812 L 19.164062 25.632812 Z M 19.164062 23.347656 " fill-opacity="1" fill-rule="nonzero"/><path fill="#ffffff" d="M 19.164062 28.15625 L 27.234375 28.15625 L 27.234375 30.4375 L 19.164062 30.4375 Z M 19.164062 28.15625 " fill-opacity="1" fill-rule="nonzero"/><g transform="matrix(1, 0, 0, 1, 15, 13)"><g clip-path="url(#ed0a3f517d)"><g fill="#107c42" fill-opacity="1"><g transform="translate(1.055454, 2.22204)"><g><path d="M 1.015625 -0.5 L 0.28125 -0.5 C 0.28125 -0.363281 0.304688 -0.265625 0.359375 -0.203125 C 0.421875 -0.148438 0.503906 -0.125 0.609375 -0.125 C 0.679688 -0.125 0.738281 -0.132812 0.78125 -0.15625 C 0.832031 -0.1875 0.875 -0.226562 0.90625 -0.28125 L 0.921875 -0.28125 L 1.03125 -0.234375 C 1 -0.148438 0.945312 -0.0859375 0.875 -0.046875 C 0.8125 -0.00390625 0.722656 0.015625 0.609375 0.015625 C 0.503906 0.015625 0.414062 0 0.34375 -0.03125 C 0.269531 -0.0703125 0.210938 -0.132812 0.171875 -0.21875 C 0.128906 -0.300781 0.109375 -0.40625 0.109375 -0.53125 C 0.109375 -0.644531 0.128906 -0.742188 0.171875 -0.828125 C 0.222656 -0.910156 0.28125 -0.972656 0.34375 -1.015625 C 0.414062 -1.054688 0.5 -1.078125 0.59375 -1.078125 C 0.726562 -1.078125 0.832031 -1.035156 0.90625 -0.953125 C 0.988281 -0.878906 1.03125 -0.769531 1.03125 -0.625 C 1.03125 -0.5625 1.03125 -0.519531 1.03125 -0.5 Z M 0.875 -0.625 C 0.875 -0.738281 0.847656 -0.820312 0.796875 -0.875 C 0.753906 -0.925781 0.6875 -0.953125 0.59375 -0.953125 C 0.507812 -0.953125 0.4375 -0.925781 0.375 -0.875 C 0.320312 -0.820312 0.289062 -0.738281 0.28125 -0.625 Z M 0.875 -0.625 "/></g></g></g><g fill="#107c42" fill-opacity="1"><g transform="translate(2.172398, 2.22204)"><g><path d="M 0.21875 0 L 0.046875 0 L 0.375 -0.546875 L 0.0625 -1.0625 L 0.234375 -1.0625 L 0.484375 -0.65625 L 0.515625 -0.65625 L 0.75 -1.0625 L 0.921875 -1.0625 L 0.625 -0.546875 L 0.9375 0 L 0.765625 0 L 0.5 -0.453125 L 0.484375 -0.453125 Z M 0.21875 0 "/></g></g></g><g clip-path="url(#1b6789cf90)"><g fill="#107c42" fill-opacity="1"><g transform="translate(3.142858, 2.22204)"><g><path d="M 0.609375 0.015625 C 0.515625 0.015625 0.429688 -0.00390625 0.359375 -0.046875 C 0.285156 -0.0859375 0.222656 -0.148438 0.171875 -0.234375 C 0.128906 -0.316406 0.109375 -0.414062 0.109375 -0.53125 C 0.109375 -0.644531 0.128906 -0.742188 0.171875 -0.828125 C 0.222656 -0.910156 0.285156 -0.972656 0.359375 -1.015625 C 0.429688 -1.054688 0.515625 -1.078125 0.609375 -1.078125 C 0.722656 -1.078125 0.8125 -1.054688 0.875 -1.015625 C 0.9375 -0.972656 0.984375 -0.914062 1.015625 -0.84375 L 0.90625 -0.765625 L 0.890625 -0.765625 C 0.859375 -0.828125 0.820312 -0.867188 0.78125 -0.890625 C 0.738281 -0.921875 0.679688 -0.9375 0.609375 -0.9375 C 0.546875 -0.9375 0.488281 -0.921875 0.4375 -0.890625 C 0.382812 -0.859375 0.34375 -0.8125 0.3125 -0.75 C 0.289062 -0.6875 0.28125 -0.613281 0.28125 -0.53125 C 0.28125 -0.4375 0.289062 -0.359375 0.3125 -0.296875 C 0.34375 -0.242188 0.382812 -0.203125 0.4375 -0.171875 C 0.488281 -0.140625 0.546875 -0.125 0.609375 -0.125 C 0.679688 -0.125 0.738281 -0.140625 0.78125 -0.171875 C 0.832031 -0.203125 0.875 -0.253906 0.90625 -0.328125 L 0.921875 -0.328125 L 1.03125 -0.265625 C 1 -0.179688 0.945312 -0.113281 0.875 -0.0625 C 0.8125 -0.0078125 0.722656 0.015625 0.609375 0.015625 Z M 0.609375 0.015625 "/></g></g><g transform="translate(4.238601, 2.22204)"><g><path d="M 1.015625 -0.5 L 0.28125 -0.5 C 0.28125 -0.363281 0.304688 -0.265625 0.359375 -0.203125 C 0.421875 -0.148438 0.503906 -0.125 0.609375 -0.125 C 0.679688 -0.125 0.738281 -0.132812 0.78125 -0.15625 C 0.832031 -0.1875 0.875 -0.226562 0.90625 -0.28125 L 0.921875 -0.28125 L 1.03125 -0.234375 C 1 -0.148438 0.945312 -0.0859375 0.875 -0.046875 C 0.8125 -0.00390625 0.722656 0.015625 0.609375 0.015625 C 0.503906 0.015625 0.414062 0 0.34375 -0.03125 C 0.269531 -0.0703125 0.210938 -0.132812 0.171875 -0.21875 C 0.128906 -0.300781 0.109375 -0.40625 0.109375 -0.53125 C 0.109375 -0.644531 0.128906 -0.742188 0.171875 -0.828125 C 0.222656 -0.910156 0.28125 -0.972656 0.34375 -1.015625 C 0.414062 -1.054688 0.5 -1.078125 0.59375 -1.078125 C 0.726562 -1.078125 0.832031 -1.035156 0.90625 -0.953125 C 0.988281 -0.878906 1.03125 -0.769531 1.03125 -0.625 C 1.03125 -0.5625 1.03125 -0.519531 1.03125 -0.5 Z M 0.875 -0.625 C 0.875 -0.738281 0.847656 -0.820312 0.796875 -0.875 C 0.753906 -0.925781 0.6875 -0.953125 0.59375 -0.953125 C 0.507812 -0.953125 0.4375 -0.925781 0.375 -0.875 C 0.320312 -0.820312 0.289062 -0.738281 0.28125 -0.625 Z M 0.875 -0.625 "/></g></g><g transform="translate(5.371929, 2.22204)"><g><path d="M 0.421875 0.015625 C 0.347656 0.015625 0.289062 -0.00390625 0.25 -0.046875 C 0.207031 -0.0859375 0.1875 -0.148438 0.1875 -0.234375 L 0.1875 -1.484375 L 0.34375 -1.484375 L 0.34375 -0.25 C 0.34375 -0.195312 0.347656 -0.160156 0.359375 -0.140625 C 0.378906 -0.128906 0.40625 -0.125 0.4375 -0.125 C 0.457031 -0.125 0.484375 -0.125 0.515625 -0.125 L 0.546875 0 C 0.523438 0 0.503906 0 0.484375 0 C 0.460938 0.0078125 0.441406 0.015625 0.421875 0.015625 Z M 0.421875 0.015625 "/></g></g></g></g></g></g></svg>