<svg xmlns="http://www.w3.org/2000/svg" xmlns:xlink="http://www.w3.org/1999/xlink" width="50" zoomAndPan="magnify" viewBox="0 0 37.5 37.499999" height="50" preserveAspectRatio="xMidYMid meet" version="1.0"><defs><g/><clipPath id="2ae5083dc6"><path d="M 4.125 0.015625 L 32.988281 0.015625 L 32.988281 37 L 4.125 37 Z M 4.125 0.015625 " clip-rule="nonzero"/></clipPath><clipPath id="cc6b795fea"><path d="M 24 0.015625 L 32.988281 0.015625 L 32.988281 9 L 24 9 Z M 24 0.015625 " clip-rule="nonzero"/></clipPath><clipPath id="b5efd8a4b2"><path d="M 0.0273438 1 L 3.816406 1 L 3.816406 3.84375 L 0.0273438 3.84375 Z M 0.0273438 1 " clip-rule="nonzero"/></clipPath><clipPath id="e2f1dbb4f5"><rect x="0" width="4" y="0" height="4"/></clipPath></defs><g clip-path="url(#2ae5083dc6)"><path fill="#b4e0e9" d="M 32.972656 8.476562 L 32.972656 35.699219 C 32.972656 35.859375 32.941406 36.015625 32.878906 36.164062 C 32.820312 36.3125 32.730469 36.441406 32.617188 36.554688 C 32.503906 36.667969 32.371094 36.753906 32.222656 36.816406 C 32.074219 36.878906 31.921875 36.910156 31.761719 36.910156 L 5.351562 36.910156 C 5.191406 36.910156 5.035156 36.878906 4.886719 36.816406 C 4.738281 36.753906 4.609375 36.667969 4.496094 36.554688 C 4.382812 36.441406 4.292969 36.3125 4.230469 36.164062 C 4.171875 36.015625 4.140625 35.859375 4.140625 35.699219 L 4.140625 1.339844 C 4.140625 1.179688 4.171875 1.023438 4.230469 0.878906 C 4.292969 0.730469 4.382812 0.597656 4.496094 0.484375 C 4.609375 0.371094 4.738281 0.285156 4.886719 0.222656 C 5.035156 0.164062 5.191406 0.132812 5.351562 0.132812 L 24.609375 0.132812 Z M 32.972656 8.476562 " fill-opacity="1" fill-rule="nonzero"/></g><path fill="#617447" d="M 24.214844 19.019531 C 24.0625 18.867188 23.878906 18.789062 23.664062 18.789062 C 23.449219 18.789062 23.265625 18.867188 23.113281 19.019531 L 21.335938 20.789062 L 16.777344 16.246094 C 16.625 16.09375 16.441406 16.019531 16.226562 16.019531 C 16.011719 16.019531 15.828125 16.09375 15.675781 16.246094 L 8.953125 22.945312 L 28.160156 22.945312 Z M 24.214844 19.019531 " fill-opacity="1" fill-rule="nonzero"/><path fill="#74915b" d="M 28.160156 22.945312 L 19.171875 22.945312 L 21.335938 20.789062 L 23.113281 19.019531 C 23.265625 18.867188 23.449219 18.789062 23.664062 18.789062 C 23.878906 18.789062 24.0625 18.867188 24.214844 19.019531 Z M 28.160156 22.945312 " fill-opacity="1" fill-rule="nonzero"/><path fill="#f5bb19" d="M 23.050781 14.0625 C 23.050781 14.28125 23.007812 14.488281 22.925781 14.6875 C 22.84375 14.890625 22.722656 15.066406 22.570312 15.21875 C 22.414062 15.371094 22.238281 15.492188 22.039062 15.574219 C 21.835938 15.65625 21.628906 15.699219 21.410156 15.699219 C 21.191406 15.699219 20.984375 15.65625 20.78125 15.574219 C 20.582031 15.492188 20.402344 15.371094 20.25 15.21875 C 20.097656 15.066406 19.976562 14.890625 19.894531 14.6875 C 19.8125 14.488281 19.769531 14.28125 19.769531 14.0625 C 19.769531 13.847656 19.8125 13.636719 19.894531 13.4375 C 19.976562 13.238281 20.097656 13.0625 20.25 12.90625 C 20.402344 12.753906 20.582031 12.636719 20.78125 12.554688 C 20.984375 12.46875 21.191406 12.429688 21.410156 12.429688 C 21.628906 12.429688 21.835938 12.46875 22.039062 12.554688 C 22.238281 12.636719 22.414062 12.753906 22.570312 12.90625 C 22.722656 13.0625 22.84375 13.238281 22.925781 13.4375 C 23.007812 13.636719 23.050781 13.847656 23.050781 14.0625 Z M 23.050781 14.0625 " fill-opacity="1" fill-rule="nonzero"/><g clip-path="url(#cc6b795fea)"><path fill="#62c1d3" d="M 32.972656 8.476562 L 25.820312 8.476562 C 25.660156 8.476562 25.503906 8.445312 25.355469 8.382812 C 25.207031 8.324219 25.078125 8.234375 24.960938 8.121094 C 24.847656 8.007812 24.761719 7.878906 24.699219 7.730469 C 24.636719 7.582031 24.609375 7.429688 24.609375 7.269531 L 24.609375 0.132812 Z M 32.972656 8.476562 " fill-opacity="1" fill-rule="nonzero"/></g><g transform="matrix(1, 0, 0, 1, 13, 8)"><g clip-path="url(#e2f1dbb4f5)"><g clip-path="url(#b5efd8a4b2)"><g fill="#b4e0e9" fill-opacity="1"><g transform="translate(0.0885047, 3.077303)"><g><path d="M 0.265625 -1.265625 C 0.234375 -1.265625 0.207031 -1.273438 0.1875 -1.296875 C 0.164062 -1.316406 0.15625 -1.34375 0.15625 -1.375 C 0.15625 -1.40625 0.164062 -1.429688 0.1875 -1.453125 C 0.207031 -1.472656 0.234375 -1.484375 0.265625 -1.484375 C 0.296875 -1.484375 0.320312 -1.472656 0.34375 -1.453125 C 0.363281 -1.429688 0.375 -1.40625 0.375 -1.375 C 0.375 -1.34375 0.363281 -1.316406 0.34375 -1.296875 C 0.320312 -1.273438 0.296875 -1.265625 0.265625 -1.265625 Z M 0.1875 0 L 0.1875 -1.0625 L 0.34375 -1.0625 L 0.34375 0 Z M 0.1875 0 "/></g></g><g transform="translate(0.615656, 3.077303)"><g><path d="M 0.1875 0 L 0.1875 -1.0625 L 0.328125 -1.0625 L 0.328125 -0.90625 L 0.359375 -0.90625 C 0.390625 -0.957031 0.429688 -1 0.484375 -1.03125 C 0.535156 -1.0625 0.597656 -1.078125 0.671875 -1.078125 C 0.753906 -1.078125 0.816406 -1.0625 0.859375 -1.03125 C 0.898438 -1 0.9375 -0.953125 0.96875 -0.890625 L 0.984375 -0.890625 C 1.015625 -0.953125 1.054688 -1 1.109375 -1.03125 C 1.171875 -1.0625 1.238281 -1.078125 1.3125 -1.078125 C 1.425781 -1.078125 1.507812 -1.046875 1.5625 -0.984375 C 1.613281 -0.929688 1.640625 -0.84375 1.640625 -0.71875 L 1.640625 0 L 1.484375 0 L 1.484375 -0.71875 C 1.484375 -0.789062 1.46875 -0.84375 1.4375 -0.875 C 1.40625 -0.914062 1.351562 -0.9375 1.28125 -0.9375 C 1.195312 -0.9375 1.125 -0.90625 1.0625 -0.84375 C 1.007812 -0.789062 0.984375 -0.691406 0.984375 -0.546875 L 0.984375 0 L 0.828125 0 L 0.828125 -0.71875 C 0.828125 -0.789062 0.8125 -0.84375 0.78125 -0.875 C 0.75 -0.914062 0.695312 -0.9375 0.625 -0.9375 C 0.539062 -0.9375 0.472656 -0.90625 0.421875 -0.84375 C 0.367188 -0.789062 0.34375 -0.695312 0.34375 -0.5625 L 0.34375 0 Z M 0.1875 0 "/></g></g><g transform="translate(2.427439, 3.077303)"><g><path d="M 0.546875 0.453125 C 0.378906 0.453125 0.253906 0.421875 0.171875 0.359375 C 0.0976562 0.304688 0.0625 0.234375 0.0625 0.140625 C 0.0625 0.0859375 0.078125 0.0390625 0.109375 0 C 0.148438 -0.03125 0.207031 -0.0546875 0.28125 -0.078125 L 0.28125 -0.09375 C 0.238281 -0.113281 0.207031 -0.132812 0.1875 -0.15625 C 0.175781 -0.1875 0.171875 -0.21875 0.171875 -0.25 C 0.171875 -0.289062 0.179688 -0.320312 0.203125 -0.34375 C 0.234375 -0.375 0.273438 -0.394531 0.328125 -0.40625 L 0.328125 -0.421875 C 0.210938 -0.484375 0.15625 -0.582031 0.15625 -0.71875 C 0.15625 -0.789062 0.171875 -0.851562 0.203125 -0.90625 C 0.234375 -0.957031 0.273438 -1 0.328125 -1.03125 C 0.390625 -1.0625 0.460938 -1.078125 0.546875 -1.078125 C 0.628906 -1.078125 0.703125 -1.054688 0.765625 -1.015625 C 0.785156 -1.046875 0.800781 -1.070312 0.8125 -1.09375 C 0.820312 -1.125 0.832031 -1.160156 0.84375 -1.203125 L 0.859375 -1.21875 L 0.984375 -1.1875 C 0.984375 -1.125 0.96875 -1.070312 0.9375 -1.03125 C 0.914062 -1 0.878906 -0.972656 0.828125 -0.953125 L 0.828125 -0.9375 C 0.859375 -0.90625 0.878906 -0.867188 0.890625 -0.828125 C 0.910156 -0.796875 0.921875 -0.753906 0.921875 -0.703125 C 0.921875 -0.640625 0.90625 -0.582031 0.875 -0.53125 C 0.84375 -0.476562 0.796875 -0.4375 0.734375 -0.40625 C 0.679688 -0.375 0.617188 -0.359375 0.546875 -0.359375 C 0.535156 -0.359375 0.519531 -0.359375 0.5 -0.359375 C 0.46875 -0.359375 0.445312 -0.359375 0.4375 -0.359375 C 0.40625 -0.359375 0.378906 -0.347656 0.359375 -0.328125 C 0.335938 -0.316406 0.328125 -0.296875 0.328125 -0.265625 C 0.328125 -0.234375 0.335938 -0.207031 0.359375 -0.1875 C 0.378906 -0.175781 0.414062 -0.171875 0.46875 -0.171875 L 0.71875 -0.15625 C 0.820312 -0.15625 0.898438 -0.128906 0.953125 -0.078125 C 1.003906 -0.0351562 1.03125 0.0234375 1.03125 0.109375 C 1.03125 0.171875 1.015625 0.226562 0.984375 0.28125 C 0.953125 0.332031 0.898438 0.375 0.828125 0.40625 C 0.753906 0.4375 0.660156 0.453125 0.546875 0.453125 Z M 0.546875 -0.5 C 0.617188 -0.5 0.675781 -0.515625 0.71875 -0.546875 C 0.757812 -0.585938 0.78125 -0.644531 0.78125 -0.71875 C 0.78125 -0.789062 0.757812 -0.847656 0.71875 -0.890625 C 0.675781 -0.929688 0.617188 -0.953125 0.546875 -0.953125 C 0.472656 -0.953125 0.414062 -0.929688 0.375 -0.890625 C 0.332031 -0.847656 0.3125 -0.789062 0.3125 -0.71875 C 0.3125 -0.644531 0.332031 -0.585938 0.375 -0.546875 C 0.414062 -0.515625 0.472656 -0.5 0.546875 -0.5 Z M 0.546875 0.3125 C 0.617188 0.3125 0.679688 0.300781 0.734375 0.28125 C 0.785156 0.269531 0.820312 0.25 0.84375 0.21875 C 0.863281 0.1875 0.875 0.15625 0.875 0.125 C 0.875 0.09375 0.867188 0.0664062 0.859375 0.046875 C 0.847656 0.0234375 0.828125 0.0078125 0.796875 0 C 0.773438 -0.0078125 0.738281 -0.015625 0.6875 -0.015625 L 0.453125 -0.03125 L 0.421875 -0.03125 C 0.285156 -0.0195312 0.21875 0.03125 0.21875 0.125 C 0.21875 0.25 0.328125 0.3125 0.546875 0.3125 Z M 0.546875 0.3125 "/></g></g></g></g></g></g></svg>