<svg xmlns="http://www.w3.org/2000/svg" xmlns:xlink="http://www.w3.org/1999/xlink" width="50" zoomAndPan="magnify" viewBox="0 0 37.5 37.499999" height="50" preserveAspectRatio="xMidYMid meet" version="1.0"><defs><g/><clipPath id="5bfaba11bd"><path d="M 5.042969 0 L 31.6875 0 L 31.6875 37.007812 L 5.042969 37.007812 Z M 5.042969 0 " clip-rule="nonzero"/></clipPath><clipPath id="4cd0fd7de9"><path d="M 22 0 L 31.6875 0 L 31.6875 10 L 22 10 Z M 22 0 " clip-rule="nonzero"/></clipPath><clipPath id="744478a343"><path d="M 5.042969 13 L 31.6875 13 L 31.6875 28 L 5.042969 28 Z M 5.042969 13 " clip-rule="nonzero"/></clipPath><clipPath id="e3fadf6176"><path d="M 0.0273438 1 L 3.816406 1 L 3.816406 3.84375 L 0.0273438 3.84375 Z M 0.0273438 1 " clip-rule="nonzero"/></clipPath><clipPath id="23e3331ee7"><rect x="0" width="4" y="0" height="4"/></clipPath></defs><g clip-path="url(#5bfaba11bd)"><path fill="#cc0000" d="M 22.390625 0 L 7.523438 0 C 6.128906 0 5.046875 1.09375 5.046875 2.503906 L 5.046875 34.503906 C 5.046875 35.832031 6.128906 37.007812 7.523438 37.007812 L 29.203125 37.007812 C 30.519531 37.007812 31.683594 35.910156 31.683594 34.503906 L 31.683594 9.308594 Z M 22.390625 0 " fill-opacity="1" fill-rule="nonzero"/></g><g clip-path="url(#4cd0fd7de9)"><path fill="#221f1f" d="M 22.390625 0 L 22.390625 9.308594 L 31.605469 9.308594 " fill-opacity="0.35" fill-rule="nonzero"/></g><g clip-path="url(#744478a343)"><path fill="#cc0000" d="M 5.046875 13.535156 L 31.683594 13.535156 L 31.683594 27.695312 L 5.046875 27.695312 Z M 5.046875 13.535156 " fill-opacity="1" fill-rule="nonzero"/></g><path fill="#ffffff" d="M 15.421875 20.421875 C 15.265625 20.734375 15.035156 20.96875 14.648438 21.125 C 14.339844 21.28125 13.875 21.359375 13.410156 21.359375 L 12.558594 21.359375 L 12.558594 23.550781 L 11.085938 23.550781 L 11.085938 17.367188 L 13.488281 17.367188 C 13.949219 17.367188 14.414062 17.445312 14.726562 17.605469 C 15.035156 17.761719 15.34375 17.996094 15.5 18.308594 C 15.65625 18.621094 15.730469 18.933594 15.730469 19.324219 C 15.730469 19.792969 15.65625 20.105469 15.421875 20.421875 Z M 13.949219 20.027344 C 14.105469 19.871094 14.183594 19.714844 14.183594 19.480469 C 14.183594 19.246094 14.105469 19.011719 13.949219 18.933594 C 13.796875 18.777344 13.5625 18.699219 13.332031 18.699219 L 12.558594 18.699219 L 12.558594 20.261719 L 13.332031 20.261719 C 13.640625 20.261719 13.875 20.183594 13.949219 20.027344 Z M 13.949219 20.027344 " fill-opacity="1" fill-rule="nonzero"/><path fill="#ffffff" d="M 20.457031 17.839844 C 20.917969 18.074219 21.308594 18.464844 21.539062 18.933594 C 21.773438 19.402344 21.925781 19.949219 21.925781 20.578125 C 21.925781 21.203125 21.773438 21.75 21.539062 22.21875 C 21.308594 22.6875 20.917969 23.082031 20.457031 23.316406 C 19.992188 23.550781 19.449219 23.707031 18.75 23.707031 L 16.507812 23.707031 L 16.507812 17.523438 L 18.75 17.523438 C 19.371094 17.445312 19.992188 17.605469 20.457031 17.839844 Z M 19.992188 21.90625 C 20.300781 21.59375 20.457031 21.125 20.457031 20.578125 C 20.457031 20.027344 20.300781 19.558594 19.992188 19.246094 C 19.679688 18.933594 19.214844 18.777344 18.675781 18.777344 L 17.976562 18.777344 L 17.976562 22.375 L 18.675781 22.375 C 19.214844 22.296875 19.679688 22.140625 19.992188 21.90625 Z M 19.992188 21.90625 " fill-opacity="1" fill-rule="nonzero"/><path fill="#ffffff" d="M 26.726562 17.445312 L 26.726562 18.621094 L 24.25 18.621094 L 24.25 19.949219 L 26.109375 19.949219 L 26.109375 21.125 L 24.25 21.125 L 24.25 23.628906 L 22.777344 23.628906 L 22.777344 17.445312 Z M 26.726562 17.445312 " fill-opacity="1" fill-rule="nonzero"/><g transform="matrix(1, 0, 0, 1, 13, 8)"><g clip-path="url(#23e3331ee7)"><g clip-path="url(#e3fadf6176)"><g fill="#cc0000" fill-opacity="1"><g transform="translate(0.154037, 3.077303)"><g><path d="M 0.1875 0.4375 L 0.1875 -1.0625 L 0.34375 -1.0625 L 0.34375 -0.90625 L 0.359375 -0.890625 C 0.441406 -1.015625 0.554688 -1.078125 0.703125 -1.078125 C 0.796875 -1.078125 0.875 -1.054688 0.9375 -1.015625 C 1.007812 -0.972656 1.0625 -0.910156 1.09375 -0.828125 C 1.132812 -0.753906 1.15625 -0.65625 1.15625 -0.53125 C 1.15625 -0.40625 1.132812 -0.300781 1.09375 -0.21875 C 1.050781 -0.144531 0.992188 -0.0859375 0.921875 -0.046875 C 0.859375 -0.00390625 0.785156 0.015625 0.703125 0.015625 C 0.628906 0.015625 0.5625 0.00390625 0.5 -0.015625 C 0.445312 -0.046875 0.398438 -0.0859375 0.359375 -0.140625 L 0.34375 -0.140625 L 0.34375 0.4375 Z M 0.65625 -0.125 C 0.875 -0.125 0.984375 -0.257812 0.984375 -0.53125 C 0.984375 -0.800781 0.875 -0.9375 0.65625 -0.9375 C 0.59375 -0.9375 0.535156 -0.921875 0.484375 -0.890625 C 0.441406 -0.867188 0.40625 -0.828125 0.375 -0.765625 C 0.351562 -0.703125 0.34375 -0.625 0.34375 -0.53125 C 0.34375 -0.4375 0.351562 -0.359375 0.375 -0.296875 C 0.40625 -0.234375 0.441406 -0.1875 0.484375 -0.15625 C 0.535156 -0.132812 0.59375 -0.125 0.65625 -0.125 Z M 0.65625 -0.125 "/></g></g><g transform="translate(1.422285, 3.077303)"><g><path d="M 0.546875 0.015625 C 0.460938 0.015625 0.390625 -0.00390625 0.328125 -0.046875 C 0.265625 -0.0859375 0.210938 -0.144531 0.171875 -0.21875 C 0.128906 -0.300781 0.109375 -0.40625 0.109375 -0.53125 C 0.109375 -0.65625 0.128906 -0.753906 0.171875 -0.828125 C 0.210938 -0.910156 0.265625 -0.972656 0.328125 -1.015625 C 0.398438 -1.054688 0.476562 -1.078125 0.5625 -1.078125 C 0.632812 -1.078125 0.695312 -1.0625 0.75 -1.03125 C 0.8125 -1.007812 0.863281 -0.96875 0.90625 -0.90625 L 0.921875 -0.90625 L 0.921875 -1.484375 L 1.078125 -1.484375 L 1.078125 0 L 0.921875 0 L 0.921875 -0.15625 L 0.90625 -0.15625 C 0.875 -0.101562 0.828125 -0.0625 0.765625 -0.03125 C 0.703125 0 0.628906 0.015625 0.546875 0.015625 Z M 0.59375 -0.125 C 0.695312 -0.125 0.773438 -0.15625 0.828125 -0.21875 C 0.890625 -0.289062 0.921875 -0.394531 0.921875 -0.53125 C 0.921875 -0.664062 0.890625 -0.765625 0.828125 -0.828125 C 0.773438 -0.898438 0.695312 -0.9375 0.59375 -0.9375 C 0.5 -0.9375 0.421875 -0.898438 0.359375 -0.828125 C 0.304688 -0.765625 0.28125 -0.664062 0.28125 -0.53125 C 0.28125 -0.257812 0.382812 -0.125 0.59375 -0.125 Z M 0.59375 -0.125 "/></g></g><g transform="translate(2.691496, 3.077303)"><g><path d="M 0.234375 0 L 0.234375 -0.9375 L 0.046875 -0.9375 L 0.046875 -1.0625 L 0.234375 -1.0625 C 0.222656 -1.101562 0.21875 -1.144531 0.21875 -1.1875 C 0.21875 -1.257812 0.234375 -1.316406 0.265625 -1.359375 C 0.296875 -1.410156 0.335938 -1.445312 0.390625 -1.46875 C 0.441406 -1.488281 0.5 -1.5 0.5625 -1.5 C 0.664062 -1.5 0.75 -1.476562 0.8125 -1.4375 L 0.75 -1.328125 L 0.734375 -1.328125 C 0.691406 -1.359375 0.632812 -1.375 0.5625 -1.375 C 0.5 -1.375 0.453125 -1.359375 0.421875 -1.328125 C 0.390625 -1.296875 0.375 -1.25 0.375 -1.1875 C 0.375 -1.15625 0.378906 -1.113281 0.390625 -1.0625 L 0.734375 -1.0625 L 0.734375 -0.9375 L 0.390625 -0.9375 L 0.390625 0 Z M 0.234375 0 "/></g></g></g></g></g></g></svg>