<svg xmlns="http://www.w3.org/2000/svg" xmlns:xlink="http://www.w3.org/1999/xlink" width="50" zoomAndPan="magnify" viewBox="0 0 37.5 37.499999" height="50" preserveAspectRatio="xMidYMid meet" version="1.2"><defs><clipPath id="94d0418379"><path d="M 4.390625 19 L 29 19 L 29 34 L 4.390625 34 Z M 4.390625 19 "/></clipPath><clipPath id="1975483f2f"><path d="M 9 2.917969 L 32.515625 2.917969 L 32.515625 13 L 9 13 Z M 9 2.917969 "/></clipPath></defs><g id="d889a91cfd"><g clip-rule="nonzero" clip-path="url(#94d0418379)"><path style=" stroke:none;fill-rule:nonzero;fill:#000000;fill-opacity:1;" d="M 28.152344 19.425781 L 23.804688 19.425781 C 23.699219 19.425781 23.605469 19.496094 23.574219 19.597656 L 23.0625 21.132812 C 23.039062 21.207031 23.050781 21.289062 23.097656 21.351562 C 23.144531 21.417969 23.21875 21.457031 23.296875 21.457031 L 25.53125 21.457031 L 22.339844 33.496094 L 10.449219 33.496094 L 7.257812 21.457031 L 9.496094 21.457031 C 9.574219 21.457031 9.648438 21.417969 9.695312 21.351562 C 9.742188 21.289062 9.753906 21.207031 9.730469 21.132812 L 9.214844 19.597656 C 9.183594 19.496094 9.089844 19.425781 8.984375 19.425781 L 4.636719 19.425781 C 4.5625 19.425781 4.488281 19.464844 4.441406 19.523438 C 4.394531 19.585938 4.378906 19.664062 4.402344 19.738281 L 8.234375 33.804688 C 8.265625 33.914062 8.363281 33.988281 8.472656 33.988281 L 24.320312 33.988281 C 24.429688 33.988281 24.527344 33.914062 24.554688 33.804688 L 28.390625 19.738281 C 28.410156 19.664062 28.394531 19.585938 28.347656 19.523438 C 28.300781 19.464844 28.230469 19.425781 28.152344 19.425781 Z M 28.152344 19.425781 "/></g><path style=" stroke:none;fill-rule:nonzero;fill:#000000;fill-opacity:1;" d="M 19.488281 15.609375 C 19.398438 15.320312 19.25 15.074219 19.046875 14.878906 C 18.726562 14.570312 18.402344 14.515625 18.117188 14.46875 C 17.882812 14.429688 17.660156 14.394531 17.410156 14.222656 C 17.183594 14.066406 17.089844 13.910156 16.996094 13.757812 C 16.882812 13.574219 16.753906 13.367188 16.441406 13.304688 C 16.125 13.242188 15.914062 13.394531 15.710938 13.539062 C 15.554688 13.652344 15.375 13.78125 15.085938 13.878906 C 14.71875 14.003906 14.464844 13.976562 14.238281 13.953125 C 13.988281 13.925781 13.726562 13.898438 13.457031 14.117188 C 13.171875 14.351562 13.140625 14.644531 13.109375 14.929688 C 13.082031 15.203125 13.050781 15.484375 12.800781 15.820312 L 12.761719 15.875 C 12.699219 15.953125 12.511719 16.203125 12.1875 16.375 C 11.996094 16.480469 11.824219 16.519531 11.675781 16.554688 C 11.464844 16.605469 11.25 16.65625 11.140625 16.886719 C 11.003906 17.171875 11.164062 17.445312 11.316406 17.710938 C 11.355469 17.78125 11.398438 17.855469 11.441406 17.933594 C 11.734375 18.496094 11.730469 18.972656 11.726562 19.390625 C 11.71875 19.824219 11.714844 20.234375 12.074219 20.554688 C 12.34375 20.792969 12.582031 20.792969 12.859375 20.796875 C 13.019531 20.796875 13.222656 20.800781 13.507812 20.847656 C 14.070312 20.9375 14.335938 21.238281 14.617188 21.554688 C 14.894531 21.867188 15.179688 22.1875 15.707031 22.238281 C 15.753906 22.242188 15.792969 22.246094 15.835938 22.246094 C 16.324219 22.246094 16.628906 21.964844 16.949219 21.667969 C 17.289062 21.355469 17.671875 21.003906 18.398438 20.84375 C 18.75 20.765625 19.058594 20.757812 19.332031 20.753906 C 19.769531 20.742188 20.148438 20.734375 20.320312 20.386719 C 20.445312 20.132812 20.367188 19.90625 19.992188 19.105469 C 19.667969 18.414062 19.496094 18.109375 19.402344 17.941406 C 19.320312 17.792969 19.316406 17.785156 19.300781 17.695312 C 19.246094 17.351562 19.332031 17.097656 19.421875 16.828125 C 19.53125 16.496094 19.660156 16.121094 19.488281 15.609375 Z M 19.542969 19.316406 C 19.648438 19.539062 19.898438 20.066406 19.878906 20.167969 C 19.839844 20.25 19.585938 20.253906 19.320312 20.261719 C 19.039062 20.265625 18.6875 20.273438 18.292969 20.363281 C 17.4375 20.550781 16.980469 20.96875 16.613281 21.304688 C 16.277344 21.617188 16.085938 21.777344 15.753906 21.746094 C 15.417969 21.714844 15.226562 21.5 14.988281 21.230469 C 14.691406 20.894531 14.324219 20.476562 13.585938 20.359375 C 13.265625 20.308594 13.03125 20.304688 12.863281 20.304688 C 12.601562 20.300781 12.527344 20.296875 12.402344 20.183594 C 12.21875 20.023438 12.214844 19.800781 12.21875 19.394531 C 12.222656 18.941406 12.226562 18.378906 11.878906 17.707031 C 11.832031 17.621094 11.789062 17.539062 11.742188 17.464844 C 11.667969 17.332031 11.5625 17.148438 11.585938 17.097656 C 11.609375 17.078125 11.710938 17.054688 11.789062 17.035156 C 11.949219 16.996094 12.171875 16.945312 12.421875 16.808594 C 12.667969 16.679688 12.878906 16.5 13.078125 16.261719 C 14.050781 16.183594 14.703125 16.332031 15.003906 16.714844 C 15.105469 16.839844 15.136719 16.945312 15.1875 17.136719 C 15.253906 17.359375 15.339844 17.664062 15.59375 18.140625 C 15.691406 18.324219 15.792969 18.464844 15.878906 18.59375 C 16.042969 18.828125 16.097656 18.921875 16.074219 19.023438 C 16.054688 19.09375 15.917969 19.25 15.730469 19.460938 C 15.570312 19.640625 15.402344 19.824219 15.351562 19.84375 C 15.324219 19.84375 15.253906 19.769531 15.183594 19.695312 C 15.082031 19.589844 14.957031 19.460938 14.769531 19.328125 C 14.535156 19.160156 14.277344 19.042969 13.976562 18.964844 C 13.847656 18.929688 13.710938 19.011719 13.675781 19.140625 C 13.644531 19.273438 13.722656 19.40625 13.855469 19.441406 C 14.09375 19.503906 14.300781 19.597656 14.484375 19.730469 C 14.636719 19.835938 14.738281 19.941406 14.828125 20.035156 C 14.96875 20.183594 15.113281 20.335938 15.351562 20.335938 C 15.359375 20.335938 15.367188 20.335938 15.375 20.335938 C 15.617188 20.324219 15.789062 20.132812 16.097656 19.785156 C 16.371094 19.484375 16.503906 19.332031 16.550781 19.132812 C 16.628906 18.808594 16.460938 18.566406 16.285156 18.3125 C 16.203125 18.195312 16.113281 18.066406 16.027344 17.910156 C 15.800781 17.480469 15.722656 17.214844 15.664062 17 C 15.605469 16.789062 15.550781 16.609375 15.390625 16.40625 C 15.023438 15.949219 14.359375 15.730469 13.410156 15.75 C 13.546875 15.453125 13.578125 15.191406 13.601562 14.980469 C 13.625 14.726562 13.644531 14.601562 13.769531 14.5 C 13.875 14.414062 13.957031 14.417969 14.1875 14.441406 C 14.433594 14.46875 14.773438 14.503906 15.246094 14.34375 C 15.601562 14.222656 15.832031 14.058594 15.996094 13.941406 C 16.191406 13.800781 16.25 13.769531 16.347656 13.789062 C 16.441406 13.804688 16.472656 13.84375 16.574219 14.015625 C 16.679688 14.183594 16.820312 14.414062 17.132812 14.628906 C 17.472656 14.863281 17.773438 14.910156 18.039062 14.953125 C 18.304688 15 18.496094 15.03125 18.703125 15.230469 C 18.847656 15.371094 18.953125 15.546875 19.023438 15.761719 C 19.140625 16.117188 19.058594 16.363281 18.953125 16.671875 C 18.851562 16.96875 18.738281 17.308594 18.816406 17.777344 C 18.84375 17.949219 18.882812 18.019531 18.972656 18.183594 C 19.0625 18.34375 19.230469 18.640625 19.542969 19.316406 Z M 19.542969 19.316406 "/><path style=" stroke:none;fill-rule:nonzero;fill:#000000;fill-opacity:1;" d="M 13.871094 22.355469 C 13.863281 22.222656 13.753906 22.121094 13.621094 22.121094 C 13.339844 22.125 13.070312 22.183594 12.820312 22.292969 C 12.492188 22.4375 12.265625 22.636719 12.136719 22.777344 C 12.089844 22.820312 12.066406 22.882812 12.070312 22.945312 C 12.070312 23.285156 12.097656 23.640625 12.148438 23.996094 C 12.195312 24.328125 12.265625 24.65625 12.359375 24.996094 C 12.378906 25.0625 12.425781 25.117188 12.488281 25.148438 C 12.523438 25.164062 12.558594 25.175781 12.597656 25.175781 C 12.628906 25.175781 12.660156 25.167969 12.6875 25.15625 C 13.160156 24.96875 13.632812 24.785156 14.105469 24.601562 C 14.230469 24.550781 14.292969 24.414062 14.25 24.289062 C 14.152344 24.011719 14.074219 23.730469 14.011719 23.449219 C 13.9375 23.097656 13.890625 22.742188 13.871094 22.355469 Z M 12.765625 24.597656 C 12.710938 24.371094 12.667969 24.148438 12.636719 23.925781 C 12.59375 23.625 12.570312 23.332031 12.5625 23.042969 C 12.664062 22.949219 12.816406 22.832031 13.019531 22.746094 C 13.136719 22.691406 13.265625 22.65625 13.394531 22.632812 C 13.421875 22.953125 13.46875 23.253906 13.53125 23.550781 C 13.578125 23.777344 13.640625 24.003906 13.710938 24.226562 C 13.394531 24.351562 13.082031 24.472656 12.765625 24.597656 Z M 12.765625 24.597656 "/><path style=" stroke:none;fill-rule:nonzero;fill:#000000;fill-opacity:1;" d="M 18.128906 25.675781 C 18.039062 25.949219 17.925781 26.21875 17.796875 26.480469 C 17.632812 26.808594 17.441406 27.128906 17.230469 27.425781 C 17.152344 27.535156 17.175781 27.6875 17.28125 27.765625 C 17.503906 27.9375 17.753906 28.058594 18.015625 28.128906 C 18.210938 28.179688 18.390625 28.199219 18.542969 28.199219 C 18.664062 28.199219 18.773438 28.1875 18.855469 28.171875 C 18.917969 28.164062 18.972656 28.128906 19.011719 28.082031 C 19.222656 27.804688 19.421875 27.511719 19.597656 27.207031 C 19.765625 26.917969 19.917969 26.609375 20.046875 26.292969 C 20.074219 26.226562 20.074219 26.15625 20.042969 26.09375 C 20.015625 26.027344 19.957031 25.980469 19.890625 25.960938 C 19.40625 25.816406 18.917969 25.667969 18.433594 25.519531 C 18.308594 25.480469 18.171875 25.550781 18.128906 25.675781 Z M 19.484375 26.355469 C 19.386719 26.5625 19.28125 26.765625 19.171875 26.960938 C 19.023438 27.214844 18.859375 27.464844 18.683594 27.699219 C 18.542969 27.710938 18.355469 27.707031 18.144531 27.652344 C 18.015625 27.617188 17.890625 27.570312 17.777344 27.503906 C 17.945312 27.246094 18.101562 26.976562 18.238281 26.699219 C 18.34375 26.488281 18.433594 26.277344 18.515625 26.0625 C 18.839844 26.160156 19.160156 26.257812 19.484375 26.355469 Z M 19.484375 26.355469 "/><path style=" stroke:none;fill-rule:nonzero;fill:#000000;fill-opacity:1;" d="M 19.941406 24.210938 C 19.945312 24.210938 19.949219 24.210938 19.953125 24.210938 C 20.023438 24.207031 20.089844 24.171875 20.132812 24.117188 L 20.910156 23.136719 C 20.988281 23.039062 20.980469 22.894531 20.890625 22.808594 L 20.015625 21.949219 C 19.917969 21.855469 19.765625 21.855469 19.667969 21.953125 L 18.820312 22.808594 C 18.726562 22.90625 18.726562 23.058594 18.820312 23.15625 L 19.761719 24.136719 C 19.808594 24.183594 19.871094 24.210938 19.941406 24.210938 Z M 19.847656 22.472656 L 20.386719 23.003906 L 19.921875 23.589844 L 19.339844 22.984375 Z M 19.847656 22.472656 "/><path style=" stroke:none;fill-rule:nonzero;fill:#000000;fill-opacity:1;" d="M 16.316406 29.539062 L 15.117188 29.179688 C 14.996094 29.144531 14.867188 29.203125 14.820312 29.320312 L 14.347656 30.453125 C 14.296875 30.578125 14.355469 30.722656 14.480469 30.773438 L 15.589844 31.242188 C 15.621094 31.257812 15.65625 31.261719 15.6875 31.261719 C 15.78125 31.261719 15.871094 31.207031 15.910156 31.117188 L 16.46875 29.878906 C 16.5 29.8125 16.5 29.738281 16.46875 29.671875 C 16.441406 29.609375 16.382812 29.558594 16.316406 29.539062 Z M 15.5625 30.695312 L 14.898438 30.414062 L 15.1875 29.714844 L 15.90625 29.929688 Z M 15.5625 30.695312 "/><path style=" stroke:none;fill-rule:nonzero;fill:#000000;fill-opacity:1;" d="M 20.28125 29.917969 C 20.324219 30.007812 20.414062 30.0625 20.507812 30.0625 C 20.542969 30.0625 20.574219 30.058594 20.605469 30.042969 L 21.714844 29.570312 C 21.835938 29.519531 21.894531 29.378906 21.847656 29.253906 L 21.34375 27.988281 C 21.316406 27.921875 21.265625 27.871094 21.195312 27.847656 C 21.128906 27.824219 21.054688 27.832031 20.996094 27.863281 L 19.902344 28.480469 C 19.789062 28.539062 19.746094 28.675781 19.796875 28.792969 Z M 20.988281 28.433594 L 21.300781 29.210938 L 20.636719 29.496094 L 20.335938 28.800781 Z M 20.988281 28.433594 "/><path style=" stroke:none;fill-rule:nonzero;fill:#000000;fill-opacity:1;" d="M 21.53125 13.523438 L 20.5625 13.296875 C 20.445312 13.269531 20.328125 13.332031 20.28125 13.441406 L 19.863281 14.421875 C 19.8125 14.542969 19.863281 14.683594 19.980469 14.738281 L 20.992188 15.230469 C 21.027344 15.246094 21.0625 15.253906 21.101562 15.253906 C 21.132812 15.253906 21.167969 15.25 21.199219 15.234375 C 21.265625 15.207031 21.3125 15.148438 21.335938 15.082031 L 21.710938 13.832031 C 21.730469 13.769531 21.722656 13.699219 21.691406 13.636719 C 21.65625 13.578125 21.597656 13.539062 21.53125 13.523438 Z M 20.949219 14.660156 L 20.410156 14.398438 L 20.652344 13.824219 L 21.164062 13.941406 Z M 20.949219 14.660156 "/><g clip-rule="nonzero" clip-path="url(#1975483f2f)"><path style=" stroke:none;fill-rule:nonzero;fill:#000000;fill-opacity:1;" d="M 32.257812 8.058594 L 26.34375 7.65625 C 26.46875 7.46875 26.585938 7.269531 26.699219 7.050781 C 26.757812 6.929688 26.710938 6.78125 26.589844 6.71875 C 26.46875 6.660156 26.320312 6.707031 26.257812 6.828125 C 26.085938 7.167969 25.894531 7.464844 25.691406 7.710938 C 25.421875 8.035156 25.128906 8.285156 24.796875 8.480469 C 24.445312 8.691406 24.117188 8.789062 23.800781 8.886719 C 23.292969 9.042969 22.8125 9.1875 22.347656 9.71875 C 22.199219 9.882812 22.027344 10.136719 21.683594 10.636719 L 21.652344 10.683594 C 21.339844 11.148438 21.101562 11.527344 20.964844 11.75 C 20.941406 11.78125 20.882812 11.851562 20.792969 11.921875 C 20.671875 12.015625 20.539062 12.078125 20.398438 12.097656 C 20.226562 12.125 20.0625 12.066406 19.949219 11.933594 C 19.835938 11.804688 19.796875 11.636719 19.847656 11.46875 L 20.527344 9.078125 C 20.761719 8.257812 20.621094 7.378906 20.160156 6.742188 C 20.121094 6.679688 20.078125 6.625 20.035156 6.574219 C 19.988281 6.519531 19.945312 6.46875 19.894531 6.417969 C 19.570312 6.089844 19.128906 5.902344 18.816406 5.808594 C 18.8125 5.804688 18.8125 5.808594 18.8125 5.804688 C 18.445312 5.691406 18.019531 5.621094 17.546875 5.605469 C 17.210938 5.59375 16.878906 5.605469 16.527344 5.640625 C 16.523438 5.640625 16.523438 5.640625 16.523438 5.640625 C 15.507812 5.753906 14.5625 6.070312 13.726562 6.347656 C 13.335938 6.480469 12.96875 6.601562 12.609375 6.699219 C 12 6.867188 11.546875 6.925781 11.132812 6.894531 C 10.933594 6.878906 10.457031 6.839844 10.226562 6.519531 C 10.167969 6.4375 10.152344 6.335938 10.175781 6.238281 C 10.203125 6.140625 10.273438 6.058594 10.367188 6.019531 L 15.726562 3.667969 C 16.089844 3.507812 16.480469 3.429688 16.882812 3.429688 L 32.242188 3.429688 C 32.378906 3.429688 32.488281 3.316406 32.488281 3.183594 C 32.488281 3.046875 32.378906 2.933594 32.242188 2.933594 L 16.882812 2.933594 C 16.410156 2.933594 15.957031 3.03125 15.527344 3.21875 L 10.167969 5.566406 C 9.941406 5.667969 9.769531 5.867188 9.703125 6.105469 C 9.636719 6.347656 9.679688 6.601562 9.832031 6.8125 C 10.191406 7.3125 10.847656 7.367188 11.097656 7.386719 C 11.179688 7.390625 11.269531 7.394531 11.355469 7.394531 C 11.4375 7.394531 11.523438 7.390625 11.613281 7.382812 L 11.351562 7.570312 C 11.101562 7.742188 10.957031 8.027344 10.957031 8.335938 C 10.957031 8.53125 11.015625 8.71875 11.125 8.875 C 11.269531 9.078125 11.484375 9.214844 11.730469 9.257812 C 11.785156 9.269531 11.839844 9.273438 11.894531 9.273438 C 12.085938 9.273438 12.269531 9.214844 12.429688 9.101562 L 13.0625 8.65625 C 13.082031 8.804688 13.132812 8.957031 13.226562 9.089844 C 13.371094 9.296875 13.585938 9.433594 13.832031 9.476562 C 13.886719 9.484375 13.941406 9.488281 13.992188 9.488281 C 14.183594 9.488281 14.371094 9.429688 14.53125 9.316406 L 15.179688 8.859375 C 15.199219 9.015625 15.253906 9.160156 15.339844 9.285156 C 15.484375 9.492188 15.699219 9.628906 15.945312 9.671875 C 16 9.679688 16.054688 9.683594 16.109375 9.683594 C 16.300781 9.683594 16.488281 9.625 16.644531 9.511719 L 19.882812 7.226562 C 20.15625 7.726562 20.222656 8.351562 20.054688 8.941406 L 19.371094 11.335938 C 19.277344 11.660156 19.355469 12.007812 19.578125 12.261719 C 19.769531 12.476562 20.039062 12.597656 20.320312 12.597656 C 20.371094 12.597656 20.421875 12.59375 20.472656 12.585938 C 20.699219 12.550781 20.90625 12.457031 21.09375 12.316406 C 21.234375 12.207031 21.316406 12.101562 21.359375 12.046875 C 21.363281 12.039062 21.371094 12.03125 21.375 12.023438 C 21.519531 11.789062 21.753906 11.417969 22.0625 10.960938 L 22.089844 10.917969 C 22.410156 10.449219 22.589844 10.1875 22.714844 10.046875 C 23.089844 9.621094 23.464844 9.503906 23.945312 9.359375 C 24.273438 9.257812 24.644531 9.144531 25.046875 8.90625 C 25.394531 8.703125 25.699219 8.445312 25.980469 8.125 L 32.222656 8.550781 C 32.230469 8.550781 32.234375 8.550781 32.242188 8.550781 C 32.367188 8.550781 32.476562 8.453125 32.488281 8.324219 C 32.496094 8.1875 32.394531 8.070312 32.257812 8.058594 Z M 12.144531 8.699219 C 12.050781 8.765625 11.933594 8.792969 11.816406 8.773438 C 11.699219 8.75 11.597656 8.6875 11.527344 8.589844 C 11.476562 8.515625 11.449219 8.429688 11.449219 8.335938 C 11.449219 8.191406 11.515625 8.054688 11.632812 7.972656 L 12.785156 7.160156 C 13.140625 7.0625 13.5 6.945312 13.882812 6.816406 C 14.40625 6.640625 14.941406 6.464844 15.5 6.328125 L 13.445312 7.777344 C 13.441406 7.78125 13.433594 7.785156 13.429688 7.792969 C 13.425781 7.792969 13.421875 7.796875 13.421875 7.800781 Z M 14.246094 8.914062 C 14.148438 8.984375 14.03125 9.007812 13.917969 8.988281 C 13.800781 8.96875 13.699219 8.902344 13.625 8.800781 C 13.484375 8.601562 13.53125 8.328125 13.722656 8.1875 C 13.730469 8.183594 13.738281 8.175781 13.746094 8.167969 L 16.636719 6.128906 C 16.945312 6.097656 17.238281 6.085938 17.527344 6.097656 C 17.746094 6.105469 17.957031 6.125 18.152344 6.15625 L 15.570312 7.980469 C 15.570312 7.980469 15.566406 7.984375 15.5625 7.984375 Z M 16.363281 9.109375 C 16.265625 9.175781 16.148438 9.203125 16.03125 9.183594 C 15.914062 9.164062 15.8125 9.097656 15.742188 9 C 15.691406 8.925781 15.664062 8.839844 15.664062 8.746094 C 15.664062 8.605469 15.730469 8.472656 15.84375 8.390625 L 15.847656 8.386719 C 15.847656 8.386719 15.851562 8.386719 15.851562 8.382812 L 18.777344 6.316406 C 19.097656 6.429688 19.363281 6.582031 19.542969 6.765625 C 19.5625 6.785156 19.582031 6.808594 19.597656 6.828125 Z M 16.363281 9.109375 "/></g><g style="fill:#000000;fill-opacity:1;"><g transform="translate(25.499845, 25.386511)"><path style="stroke:none" d="M 0.71875 -0.171875 L 0.765625 -0.0625 C 0.742188 -0.03125 0.710938 -0.0078125 0.671875 0 C 0.628906 0.0078125 0.582031 0.015625 0.53125 0.015625 C 0.332031 0.015625 0.234375 -0.0820312 0.234375 -0.28125 L 0.234375 -0.9375 L 0.046875 -0.9375 L 0.046875 -1.0625 L 0.234375 -1.0625 L 0.234375 -1.28125 L 0.390625 -1.3125 L 0.390625 -1.0625 L 0.734375 -1.0625 L 0.734375 -0.9375 L 0.390625 -0.9375 L 0.390625 -0.296875 C 0.390625 -0.179688 0.441406 -0.125 0.546875 -0.125 C 0.609375 -0.125 0.660156 -0.140625 0.703125 -0.171875 Z M 0.71875 -0.171875 "/></g></g></g></svg>