<svg xmlns="http://www.w3.org/2000/svg" xmlns:xlink="http://www.w3.org/1999/xlink" width="50" zoomAndPan="magnify" viewBox="0 0 37.5 37.499999" height="50" preserveAspectRatio="xMidYMid meet" version="1.0"><defs><g/><clipPath id="7401313f5c"><path d="M 4.398438 0 L 35.484375 0 L 35.484375 37.007812 L 4.398438 37.007812 Z M 4.398438 0 " clip-rule="nonzero"/></clipPath><clipPath id="768c1656a0"><path d="M 0.261719 1 L 3.34375 1 L 3.34375 3.84375 L 0.261719 3.84375 Z M 0.261719 1 " clip-rule="nonzero"/></clipPath><clipPath id="e58529d928"><rect x="0" width="4" y="0" height="4"/></clipPath></defs><g clip-path="url(#7401313f5c)"><path fill="#eceff1" d="M 9.253906 -0.0859375 C 6.570312 -0.0859375 4.394531 2.074219 4.394531 4.742188 L 4.394531 32.832031 C 4.394531 35.496094 6.570312 37.660156 9.253906 37.660156 L 30.449219 37.660156 C 33.132812 37.660156 35.308594 35.496094 35.308594 32.832031 L 35.308594 13.378906 C 35.308594 11.96875 34.6875 10.628906 33.609375 9.710938 L 23.472656 1.074219 C 22.589844 0.324219 21.46875 -0.0859375 20.3125 -0.0859375 Z M 9.253906 -0.0859375 " fill-opacity="1" fill-rule="nonzero"/></g><path fill="#8b98a6" d="M 23.9375 1.472656 C 22.503906 0.25 20.292969 1.261719 20.292969 3.136719 L 20.292969 8.25 C 20.292969 10.917969 22.46875 13.078125 25.152344 13.078125 L 31.59375 13.078125 C 33.644531 13.078125 34.585938 10.542969 33.03125 9.21875 Z M 23.9375 1.472656 " fill-opacity="1" fill-rule="nonzero"/><path fill="#5e94ff" d="M 11.460938 16.152344 C 11.460938 15.425781 12.054688 14.835938 12.785156 14.835938 L 26.917969 14.835938 C 27.648438 14.835938 28.242188 15.425781 28.242188 16.152344 L 28.242188 19.664062 C 28.242188 20.390625 27.648438 20.980469 26.917969 20.980469 C 26.183594 20.980469 25.59375 20.390625 25.59375 19.664062 L 25.59375 17.46875 L 14.109375 17.46875 L 14.109375 19.664062 C 14.109375 20.390625 13.519531 20.980469 12.785156 20.980469 C 12.054688 20.980469 11.460938 20.390625 11.460938 19.664062 Z M 11.460938 16.152344 " fill-opacity="1" fill-rule="evenodd"/><path fill="#5e94ff" d="M 19.851562 15.714844 C 20.582031 15.714844 21.175781 16.300781 21.175781 17.03125 L 21.175781 31.074219 C 21.175781 31.800781 20.582031 32.390625 19.851562 32.390625 C 19.121094 32.390625 18.527344 31.800781 18.527344 31.074219 L 18.527344 17.03125 C 18.527344 16.300781 19.121094 15.714844 19.851562 15.714844 Z M 19.851562 15.714844 " fill-opacity="1" fill-rule="evenodd"/><path fill="#5e94ff" d="M 14.996094 31.074219 C 14.996094 30.347656 15.585938 29.757812 16.320312 29.757812 L 23.382812 29.757812 C 24.117188 29.757812 24.707031 30.347656 24.707031 31.074219 C 24.707031 31.800781 24.117188 32.390625 23.382812 32.390625 L 16.320312 32.390625 C 15.585938 32.390625 14.996094 31.800781 14.996094 31.074219 Z M 14.996094 31.074219 " fill-opacity="1" fill-rule="evenodd"/><g transform="matrix(1, 0, 0, 1, 13, 8)"><g clip-path="url(#e58529d928)"><g clip-path="url(#768c1656a0)"><g fill="#eceff1" fill-opacity="1"><g transform="translate(0.497119, 3.077303)"><g><path d="M 0.71875 -0.171875 L 0.765625 -0.0625 C 0.742188 -0.03125 0.710938 -0.0078125 0.671875 0 C 0.628906 0.0078125 0.582031 0.015625 0.53125 0.015625 C 0.332031 0.015625 0.234375 -0.0820312 0.234375 -0.28125 L 0.234375 -0.9375 L 0.046875 -0.9375 L 0.046875 -1.0625 L 0.234375 -1.0625 L 0.234375 -1.28125 L 0.390625 -1.3125 L 0.390625 -1.0625 L 0.734375 -1.0625 L 0.734375 -0.9375 L 0.390625 -0.9375 L 0.390625 -0.296875 C 0.390625 -0.179688 0.441406 -0.125 0.546875 -0.125 C 0.609375 -0.125 0.660156 -0.140625 0.703125 -0.171875 Z M 0.71875 -0.171875 "/></g></g><g transform="translate(1.306639, 3.077303)"><g><path d="M 0.21875 0 L 0.046875 0 L 0.375 -0.546875 L 0.0625 -1.0625 L 0.234375 -1.0625 L 0.484375 -0.65625 L 0.515625 -0.65625 L 0.75 -1.0625 L 0.921875 -1.0625 L 0.625 -0.546875 L 0.9375 0 L 0.765625 0 L 0.5 -0.453125 L 0.484375 -0.453125 Z M 0.21875 0 "/></g></g><g transform="translate(2.297337, 3.077303)"><g><path d="M 0.71875 -0.171875 L 0.765625 -0.0625 C 0.742188 -0.03125 0.710938 -0.0078125 0.671875 0 C 0.628906 0.0078125 0.582031 0.015625 0.53125 0.015625 C 0.332031 0.015625 0.234375 -0.0820312 0.234375 -0.28125 L 0.234375 -0.9375 L 0.046875 -0.9375 L 0.046875 -1.0625 L 0.234375 -1.0625 L 0.234375 -1.28125 L 0.390625 -1.3125 L 0.390625 -1.0625 L 0.734375 -1.0625 L 0.734375 -0.9375 L 0.390625 -0.9375 L 0.390625 -0.296875 C 0.390625 -0.179688 0.441406 -0.125 0.546875 -0.125 C 0.609375 -0.125 0.660156 -0.140625 0.703125 -0.171875 Z M 0.71875 -0.171875 "/></g></g></g></g></g></g></svg>